<svg width="128" height="123" viewBox="0 0 128 123" fill="none" xmlns="http://www.w3.org/2000/svg">
<path d="M90.3018 9.68473C94.8319 9.53873 101.83 8.64816 104.951 11.9003C105.884 12.7217 107.244 14.6915 107.311 15.9943C108.055 30.3129 107.328 45.1289 107.719 59.4455L102.285 58.1992C102.343 50.5591 102.579 41.1319 102.226 33.615C94.0939 33.092 81.6733 33.4862 73.1295 33.4827L16.4259 33.4736C13.0847 33.4605 9.00678 33.3419 5.74121 33.6553C5.53031 36.6695 5.66655 40.974 5.66539 44.1163L5.66216 63.3307L5.65371 85.9899C5.654 88.9354 5.29025 99.8807 6.47046 101.686C9.15321 102.379 22.8383 102.144 26.2964 102.144L65.0961 102.102C65.7349 104.277 66.2162 105.55 67.0709 107.632C54.6226 107.989 42.0948 107.694 29.6389 107.684C22.1551 107.679 14.3014 108.23 6.85435 107.636C5.80481 107.552 4.81625 107.29 3.8764 106.808C2.36073 106.031 1.16768 104.725 0.654287 103.084C-0.449502 99.556 0.177653 63.7079 0.175612 56.6111L0.151398 32.5548C0.142939 27.8342 0.0828529 23.1276 0.217326 18.4091C0.35705 13.5115 2.72184 11.0968 7.2353 9.72297C10.5195 9.5615 14.4129 9.65377 17.742 9.65173C17.7298 12.7416 17.2251 18.021 19.1535 20.467C21.2319 23.0847 25.6427 23.1772 28.0159 20.9453C30.5995 18.5153 29.8983 13.0864 29.9618 9.67655C45.169 9.23068 62.7625 9.6091 78.0359 9.66604C78.0242 12.8143 77.5196 18.035 79.5235 20.5397C81.6296 23.127 85.9905 23.0966 88.3561 20.9216C90.9639 18.5261 90.1559 13.1419 90.3018 9.68473Z" fill="black"/>
<path d="M95.1262 63.6748C111.435 61.9109 126.081 73.723 127.829 90.0496C129.576 106.376 117.765 121.026 101.453 122.761C85.1617 124.494 70.5476 112.687 68.8004 96.3808C67.056 80.0747 78.8377 65.4364 95.1262 63.6748Z" fill="black"/>
<path d="M112.856 78.7106C113.699 79.2224 119.55 85.845 119.807 86.5557C119.235 89.4014 112.94 88.1368 111.943 89.3028C108.664 93.1351 110.764 95.3563 106.22 98.9071C105.838 101.132 105.31 103.709 105.546 105.936C105.662 107.053 106.164 107.812 106.179 108.866C105.286 109.545 104.423 109.413 103.428 109.029C101.657 106.713 102.824 102.504 101.506 99.6281C100.319 97.041 97.0894 98.9358 94.7384 98.609C93.0144 98.3693 91.2176 97.7935 89.5315 97.2989C84.3451 103.667 88.6448 104.333 87.8339 109.124L87.2709 109.364C86.8654 109.315 86.1945 109.307 85.9349 109.086C84.8615 108.163 84.2489 103.961 83.9339 102.542C82.8546 104.582 84.4297 107.508 83.543 109.196C82.7816 109.396 82.6766 109.326 81.8832 109.15C80.7893 108.138 80.7485 102.437 80.2993 99.9965C81.9328 96.4781 81.0052 93.1179 80.1709 89.341L79.9784 89.36C79.4183 93.0656 80.6056 98.1967 78.8495 100.694L78.377 100.762C77.709 100.082 77.6711 99.3953 77.6156 98.4665C77.5252 96.9169 78.4412 95.5916 78.5462 94.0706C78.7766 90.7169 77.251 86.547 80.2439 83.9856C83.2104 81.5472 87.0842 82.4039 90.4416 82.5199C93.4695 82.6244 107.022 83.3094 108.912 81.6328C108.6 81.0471 108.361 80.6546 107.996 80.0981L108.396 79.7573C109.379 79.4718 109.653 79.6236 110.569 80.0064L110.846 80.1241C111.934 79.8651 111.969 79.5611 112.856 78.7106Z" fill="white"/>
<path d="M83.2515 0.0130615C84.5088 0.0507299 86.8717 0.457785 87.0672 2.04862C87.671 6.92507 87.4726 12.2722 87.1226 17.1735C87.0497 18.2057 85.8391 18.849 85.0544 19.3364L84.7452 19.318C81.4225 19.1066 80.4949 17.0561 80.8858 13.8876C81.4313 9.44564 79.1822 2.65073 83.2515 0.0130615Z" fill="black"/>
<path d="M23.1599 0.00012207C24.0863 0.0243583 26.35 0.331251 26.556 1.43707C27.4828 6.40871 27.1522 12.452 26.822 17.5186C26.7692 18.3306 24.925 19.1117 24.2943 19.3842C19.8507 18.9409 20.4008 14.6993 20.6453 11.0872C20.932 6.85139 19.3425 2.37411 23.1599 0.00012207Z" fill="black"/>
<path d="M19.7405 43.3247C21.7702 43.297 26.2544 42.8184 27.6188 43.9782C28.8139 46.1344 28.3271 49.4799 28.0914 51.8539C27.9761 53.0114 27.4808 53.2079 26.6693 53.8217C24.9257 53.8588 20.8006 54.0748 19.3531 53.6111C17.1366 52.9007 17.7673 46.5356 18.1778 44.7669C18.3861 43.8699 19.0599 43.6792 19.7405 43.3247Z" fill="black"/>
<path d="M60.0148 43.3064C61.9313 43.2621 66.0707 42.9645 67.6927 43.6787C69.23 45.3619 68.6932 49.1009 68.5445 51.2495C68.4453 52.6786 68.1682 52.9022 67.1909 53.7987C58.4483 53.8968 57.4247 55.1407 58.5475 44.8704C58.6408 44.011 59.3993 43.7065 60.0148 43.3064Z" fill="black"/>
<path d="M19.2282 62.5807C20.8134 62.5296 26.989 62.0107 27.6736 63.2759C28.7171 65.2035 28.8023 71.3939 26.9694 72.9959C19.2215 73.0084 17.3435 74.6839 17.926 65.277C18.0205 63.7513 18.0754 63.6138 19.2282 62.5807Z" fill="black"/>
<path d="M59.4577 62.5542C61.3655 62.546 66.4647 61.8881 67.5878 63.1306C69.1863 64.9013 69.1397 71.1744 67.4594 72.991C62.6491 73.0365 57.6152 74.8434 58.2734 67.819C58.4776 65.6445 57.7103 64.2665 59.4577 62.5542Z" fill="black"/>
<path d="M39.5279 43.3179C40.7986 43.2913 46.9359 42.8875 47.6938 43.9072C48.7711 45.3569 48.4803 49.1766 48.3309 50.9821C48.1938 52.6407 48.2099 52.756 47.0004 53.7789C44.9053 53.837 40.5783 54.2076 38.8254 53.281C37.5355 51.5366 38.0451 47.5537 38.2277 45.3978C38.3328 44.1612 38.7029 43.9717 39.5279 43.3179Z" fill="black"/>
<path d="M39.2879 62.5579C47.4007 62.3307 49.2207 61.0704 48.317 70.5263C48.1729 72.031 48.2099 71.9896 47.1201 72.9876C41.2893 73.0019 37.3841 74.808 38.0656 66.8179C38.2333 64.8513 37.7103 64.1297 39.2879 62.5579Z" fill="black"/>
<path d="M80.0662 43.3375C81.4926 43.299 87.3211 42.9098 87.9833 43.8634C89.366 45.8605 89.1035 51.9785 87.4436 53.7921C78.7185 53.951 77.5691 55.0501 78.698 44.856C78.7914 44.0132 79.4594 43.7341 80.0662 43.3375Z" fill="black"/>
<path d="M19.1465 81.8052C25.1952 81.8183 28.9933 79.8771 28.3101 87.9162C28.1421 89.8905 28.6645 90.5311 27.0368 92.06C22.0397 92.3071 17.1868 93.6564 17.8537 86.7149C18.0619 84.5453 17.3974 83.495 19.1465 81.8052Z" fill="black"/>
<path d="M39.285 81.7926C40.8346 81.7628 46.6163 81.3733 47.6899 82.3924C48.7065 83.3574 48.4988 87.5328 48.3523 88.9373C48.1473 90.9005 48.3879 90.8724 47.0277 92.0457C39.395 92.3911 37.201 93.3822 38.1018 84.3213C38.2331 82.9997 38.2418 82.7518 39.285 81.7926Z" fill="black"/>
</svg>
