<svg width="128" height="104" viewBox="0 0 128 104" fill="none" xmlns="http://www.w3.org/2000/svg">
<path d="M105.75 0.00221919C108.278 -0.0258062 108.712 0.197002 110.898 1.51195C112.654 4.99326 113.762 4.95626 115.823 7.84932C117.534 10.248 119.155 13.3995 121.232 15.63C122.772 17.1221 124.757 18.444 126.297 19.9025C129.774 23.1921 125.412 29.4622 121.4 29.7447C119.152 29.9031 117.609 28.754 115.504 28.5043C113.762 28.2978 111.724 28.7193 109.96 28.6716C108.588 28.6663 107.214 28.599 105.842 28.5038C101.057 31.5333 97.5238 38.9508 95.9448 44.2033C94.1557 51.0468 93.1674 54.2156 87.6211 58.876C77.6848 67.227 75.5654 80.7803 80.5545 92.0515C78.3679 92.1499 74.1151 92.8158 73.2724 90.1921C71.0969 83.4363 72.2952 75.0968 71.8613 67.9514C71.8221 67.3259 72.6928 64.7969 72.9392 64.0548C73.7987 64.0805 74.6582 64.0878 75.515 64.0761C81.1677 63.9558 85.9748 59.3154 82.7103 53.6279C82.2316 52.7928 80.6693 51.734 79.9414 50.8826C77.3348 47.8429 74.871 43.425 70.215 43.8678C67.6504 44.1153 64.8563 45.8038 62.6137 47.0316C62.3477 47.1768 60.7155 49.1514 60.4355 49.4931C56.6278 49.3989 52.7109 49.817 48.8277 49.8515C41.3859 49.9176 33.5438 47.5391 27.3452 52.941C23.5039 56.2875 24.4334 58.6176 22.8684 61.8304C20.2058 67.2903 18.7583 66.8363 18.3804 73.5285C18.4028 77.0765 18.3776 80.7828 19.0215 84.3947C19.5479 86.8918 23.2099 91.8422 18.2124 92.0241C16.2917 92.0939 13.9092 92.4952 12.4029 91.1564C9.9671 86.9417 9.60873 69.7851 9.31756 64.0637C9.21676 62.0885 12.0949 57.2978 11.591 52.8774C10.4851 43.1627 7.90649 35.2971 8.34885 25.4529C4.79036 33.3956 6.20706 42.9049 6.44224 51.5193C6.48703 53.1151 7.41094 56.0129 7.48093 57.9088C7.62652 61.8752 5.99985 64.5494 3.61166 67.5515C3.0825 68.2185 2.88932 68.1823 2.25098 68.1919C0.655119 66.7559 0.00559951 62.9354 0 60.8557C0.0139988 56.7306 2.67095 53.7143 2.92853 49.5592C3.58927 38.8524 -0.461973 26.285 6.7054 17.0147C12.5149 9.50114 22.1432 9.10094 30.7777 9.80606C48.3013 11.237 65.7354 10.7379 83.2703 9.94703C89.9533 9.64603 96.1352 7.92107 101.838 4.34867C103.149 2.02397 103.311 1.18993 105.75 0.00221919Z" fill="black"/>
<path d="M103.558 57.1378C116.255 56.3848 127.165 66.0561 127.955 78.7625C128.744 91.4686 119.116 102.42 106.425 103.248C93.6802 104.081 82.6828 94.3925 81.8905 81.6326C81.0981 68.8726 90.8077 57.8942 103.558 57.1378Z" fill="black"/>
<path d="M115.092 69.9058C116.644 70.4562 119.25 72.3538 117.713 74.2416C114.616 77.9855 111.041 81.4006 107.687 84.9254C106.063 86.6296 103.305 90.3051 101.11 90.8158C99.0947 90.5338 96.4321 87.0366 94.9538 85.3889C93.6827 84.1527 91.9637 82.7686 91.5493 81.096C91.6585 79.4422 92.8512 78.5247 94.4191 78.2391C96.0177 78.7136 99.6098 82.6195 100.998 84.0137C104.498 80.5358 111.632 72.562 115.092 69.9058Z" fill="white"/>
<path d="M69.6836 48.1847C70.2267 48.1679 71.5874 48.1965 72.055 48.571C74.8827 50.8329 84.7798 60.1199 74.8575 59.9372C73.41 59.9106 71.887 60.1339 70.4087 60.3419C66.2847 65.6689 69.0592 68.0906 63.1797 74.1256C63.1237 80.2657 62.6814 84.673 65.0276 90.4484C65.1928 90.857 64.7168 91.3332 64.4676 91.6521C63.6025 92.1019 63.6529 91.994 62.7933 92.1378C62.1326 92.2479 60.254 91.9099 59.9908 91.3704C57.779 86.8539 59.3693 77.7518 55.7912 73.5954C53.9126 72.2703 49.8445 73.8316 47.9351 73.4653C44.0966 72.7283 41.7532 70.8082 38.7575 74.5401C35.7253 78.3126 35.8429 80.4198 36.3805 84.9319C36.8368 87.2258 38.5251 89.3518 37.9259 91.2384C36.6632 92.6815 32.99 92.672 32.3628 90.4375C31.1645 86.1493 30.991 81.5896 29.9578 77.2084C31.9093 72.6041 31.7301 71.1067 29.9102 66.2258C30.1454 72.0341 30.7978 73.9874 26.9677 78.4059C26.4133 76.7902 26.1502 75.394 25.8086 73.7324C26.167 72.9777 27.0825 71.1213 27.2057 70.3458C27.942 65.771 26.0298 61.0647 29.4091 56.9738C33.6395 51.8555 42.6295 54.2615 48.5202 54.1073C52.6386 53.9994 56.8355 53.9185 60.9567 53.5981C62.2082 53.5006 63.5549 53.196 64.364 52.1896C65.3244 47.9861 66.0943 50.7519 69.6836 48.1847Z" fill="black"/>
</svg>
