<svg width="128" height="147" viewBox="0 0 128 147" fill="none" xmlns="http://www.w3.org/2000/svg">
<path d="M70.5332 42.6494C72.6532 42.5265 74.1814 43.071 76.076 43.8579C77.3246 44.3766 81.3971 47.2759 82.3806 47.1108C82.9326 45.9049 80.7776 44.1466 79.9159 43.5627C84.7115 41.4059 89.3383 43.4561 92.6238 47.1128C93.6121 48.2118 95.8767 51.0883 95.9948 52.6471C96.2539 56.074 99.1453 57.5756 98.7066 60.9313C98.4739 62.7034 96.5829 65.4854 96.7818 66.9935C97.3362 71.1972 100.789 76.2062 103.64 79.2039C100.588 79.9647 97.0265 79.7958 93.9037 79.3015C90.499 78.7628 87.7426 80.9508 87.4413 84.3933C87.3919 84.9579 87.2955 85.913 87.657 86.3458L87.8101 86.3256C88.3247 85.9374 88.7755 84.5526 89.0937 83.9592C91.0268 80.3505 93.0336 81.522 96.0177 81.9366C98.9548 82.3446 103.089 81.8979 105.849 81.0118C108.269 83.6873 108.297 86.722 107.953 90.2085C107.811 91.6528 107.129 92.9947 105.944 93.8572C101.1 92.0768 96.8469 92.49 91.9452 93.8536C90.5231 94.2499 88.7333 94.8546 87.2605 94.8654C86.3084 94.8727 85.807 94.5306 85.0128 94.1403L84.8525 94.1993C84.7741 94.5631 84.8754 95.11 85.0971 95.3617C87.187 97.6649 90.8328 96.3109 93.3638 95.7231C96.7432 94.9389 100.387 94.6968 103.77 95.4641C101.822 99.9812 95.8526 101.227 91.4523 100.084C90.2796 99.7801 89.019 98.8357 87.7486 98.7526C85.6106 98.6128 83.5062 99.1923 81.5851 100.096C72.6423 104.265 72.4616 112.382 68.1902 119.884C65.8678 123.963 62.4941 128.029 58.9441 131.073C56.1026 129.392 53.7279 127.918 50.9862 126.072C35.8252 115.867 23.2941 103.343 18.7241 85.1144C16.8683 77.7117 16.5894 70.5008 16.9235 62.9052C22.4008 59.1548 29.8028 57.1778 36.302 56.3301C38.0437 57.4249 38.5766 57.9736 40.6024 59.0709C39.2135 59.6929 36.5515 61.1594 35.3696 62.1776C33.6748 63.7109 30.8144 65.8256 30.2467 68.081C30.0035 69.0472 32.6335 70.3263 33.4032 70.8051C37.391 73.2863 41.7442 75.8586 46.4801 76.4919C50.502 77.0298 56.9916 74.926 57.8223 70.3735C57.8741 70.0817 57.6885 69.9111 57.497 69.7421C56.5532 69.5778 55.3884 70.7385 54.6978 71.3414C47.2808 77.8168 40.3823 71.6169 32.9945 68.0087C34.3101 66.0662 35.7806 64.8752 37.5399 63.5512C44.5911 58.2447 47.9235 62.4907 55.4512 62.0792C56.9073 62.0662 58.0877 61.8026 59.3924 61.1968C63.9743 59.0697 65.746 48.5047 60.0537 46.8408C63.3674 44.217 66.3016 42.9676 70.5332 42.6494ZM78.002 97.972L78.9505 97.3215C77.1583 96.5482 74.6081 96.5615 72.6399 96.3398C66.4655 95.6448 61.3122 92.2274 59.0091 86.3517C58.6393 85.4085 57.6541 82.0026 56.9919 81.5719C56.1697 84.0635 56.9568 87.6813 58.1323 89.9459C61.7313 96.8795 70.6103 100.485 78.002 97.972Z" fill="black"/>
<path d="M67.3739 0.00210582C69.8759 -0.0799257 74.8752 2.25647 77.3387 3.19953L98.4012 11.3149L114.703 17.5426C116.953 18.4079 119.899 19.3479 122.015 20.3507C123.451 21.0342 124.705 22.0467 125.676 23.3061C128.543 26.9987 127.949 30.7861 127.95 35.1886L127.947 47.2095L127.955 64.3306C127.957 65.9562 127.915 67.6532 127.959 69.2642C128.285 81.1336 125.392 92.8873 119.776 103.337C119.087 104.619 118.759 105.464 117.568 106.374C116.337 106.577 115.054 106.64 114.132 105.498C113.573 104.758 113.432 103.903 113.781 103.04C114.78 100.565 116.192 98.2079 117.251 95.7422C120.09 89.1315 121.654 82.1706 122.358 75.0317C122.519 73.5244 122.446 70.4087 122.443 68.7934L122.429 57.8388L122.439 38.1292C122.441 36.6816 122.553 29.6696 122.254 28.6617C121.816 27.2225 120.797 26.0319 119.441 25.3777C118.354 24.851 115.508 23.8887 114.207 23.398L102.599 19.0154L81.5883 10.9901C77.4918 9.41092 73.3844 7.81883 69.2914 6.22831C68.8093 6.04124 67.6776 5.6194 67.2052 5.80105C64.2343 6.94527 61.2265 8.21417 58.2682 9.42393L44.8307 14.8037C42.3742 15.7708 39.4576 17.0472 36.9762 17.7392C34.1346 18.5317 32.0089 13.8763 35.7045 12.3316C39.0746 10.9231 42.5065 9.60353 45.888 8.23104L58.2295 3.24229C60.473 2.34271 65.2816 0.217966 67.3739 0.00210582Z" fill="black"/>
<path d="M9.29402 44.1934C9.46878 44.2046 9.64305 44.2215 9.81673 44.2444C12.568 44.6332 12.1343 47.2873 12.1578 49.327C12.1673 50.1529 12.1576 50.9827 12.1574 51.8088L12.1496 64.9856C12.1479 67.8404 12.0776 70.7127 12.2506 73.5632C13.0393 86.5634 17.4203 98.5551 25.2998 108.951C34.6626 121.302 48.0335 130.208 61.4157 137.686C62.5788 138.336 66.5162 140.878 67.7203 140.767C69.8379 140.571 81.9347 133.142 84.5464 131.56C85.9349 130.72 87.3028 129.616 88.8009 129C89.4385 128.736 90.1158 128.633 90.7992 128.745C91.4198 128.848 92.02 129.133 92.3756 129.669C93.0035 130.617 92.8625 131.747 92.6419 132.79C91.8465 133.768 91.4427 133.991 90.3267 134.609C86.3615 137.067 72.5002 145.759 68.8411 146.477C67.7588 146.689 66.5741 146.539 65.534 146.194C63.9124 145.654 62.3362 144.679 60.8311 143.872C55.7313 141.116 50.7524 138.143 45.9082 134.96C29.4757 124.109 15.8042 110.4 9.69211 91.2253C5.94168 79.4593 6.63481 69.5371 6.63035 57.438L6.63047 50.4503C6.63155 47.8676 5.98917 44.7582 9.29402 44.1934Z" fill="black"/>
<path d="M12.0666 9.27827C14.2357 9.27875 16.876 9.2125 19.0046 9.37186C19.5629 9.76058 19.6504 9.88489 20.0673 10.4C20.2461 12.3959 20.119 17.1176 20.1313 19.29C22.6737 19.3124 25.2214 19.2535 27.7551 19.2856C29.0352 19.3019 30.0288 19.8047 30.0817 21.1551C30.1286 22.2855 30.1233 23.4508 30.0746 24.5855C29.9934 26.48 30.7562 27.8667 29.0227 29.1652C26.4414 29.3226 22.7696 29.2133 20.1066 29.2117C20.131 31.9485 20.2124 34.7949 20.0864 37.5307C20.0397 38.547 19.4671 38.9396 18.5505 39.2198C16.4755 39.2715 14.3214 39.3054 12.2507 39.2374C9.53709 39.1481 10.0518 36.5215 10.0699 34.7038L10.0939 29.2129C7.61487 29.2212 5.12126 29.2464 2.65259 29.2277C1.33034 29.2178 0.135479 28.8049 0.0869087 27.3504C0.0399049 26.28 0.0481032 25.1835 0.0935403 24.1086C0.178991 22.0839 -0.602479 20.7624 1.23778 19.3769C3.47637 19.1912 7.70093 19.3021 10.0878 19.2845C10.0921 17.6744 9.71089 11.005 10.5096 9.96126C10.933 9.40788 11.4148 9.35259 12.0666 9.27827Z" fill="#CB4D00"/>
<path d="M106.344 105.369C107.934 105.273 108.941 105.643 109.245 107.367C109.679 109.82 110.371 112.24 111.871 114.274C113.572 116.578 116.135 118.223 118.908 118.905C120.395 119.277 122.993 119.349 123.134 121.365C123.188 122.376 122.839 122.932 122.183 123.637C120.264 124.284 118.683 124.225 116.581 125.267C113.137 126.88 110.893 129.687 109.837 133.312C109.292 135.183 109.591 137.167 107.636 138.081C104.513 138.327 104.73 135.762 104.118 133.472C103.873 132.563 103.539 131.681 103.119 130.838C101.681 127.995 98.8812 125.615 95.7742 124.611C93.5433 123.95 89.9095 124.237 90.9267 120.689C91.3341 119.264 93.5577 119.303 94.7027 119.006C95.5837 118.775 96.4443 118.469 97.2747 118.093C100.689 116.515 102.974 113.667 104.083 110.091C104.653 108.25 104.435 106.201 106.344 105.369ZM101.551 121.641C102.821 122.521 104.011 123.324 105.059 124.502C105.524 125.023 106.64 126.966 107.06 127.141C108.28 124.788 110.247 123.045 112.439 121.624C110.958 120.545 109.487 119.698 108.368 118.191C107.854 117.499 107.447 116.733 106.936 116.048C105.395 118.841 104.187 119.936 101.551 121.641Z" fill="black"/>
<path d="M46.8348 27.4195C47.3608 27.4336 47.3066 27.3452 47.6273 27.6078C47.8147 29.2238 40.031 33.8246 39.9946 40.2174C39.9832 42.2177 40.7808 44.0585 42.1947 45.4667C46.349 49.6038 53.4006 49.2581 58.8116 49.2589C59.3869 49.259 59.8499 49.268 60.2669 49.7157C60.9739 50.4748 61.0866 51.7959 61.0785 52.7925C61.0618 54.8498 60.2883 57.2296 58.7719 58.6746C57.6758 59.7191 56.4502 59.5785 55.0666 59.5284C50.4772 59.2706 45.6047 58.8382 41.4685 56.6605C25.8518 48.4387 32.3889 32.1198 46.8348 27.4195Z" fill="black"/>
<path d="M97.1951 29.177C97.5229 29.2041 97.9207 29.2565 98.2292 29.3679C111.303 34.0843 116.485 49.0392 102.239 56.4934C101.29 56.8784 100.623 57.1025 99.6405 57.3955C98.6715 53.2615 99.1536 52.1348 96.4189 48.2016C98.8547 47.6539 101.315 47.0124 102.957 44.9628C106.131 41.0023 103.251 36.0432 100.311 32.9306C99.3874 31.9546 98.24 30.9441 97.3446 29.9432C97.2168 29.8005 97.2204 29.4118 97.1951 29.177Z" fill="black"/>
<path d="M103.315 59.4905C107.273 59.2168 111.019 62.2489 113.273 65.2302C111.643 67.076 109.81 68.2631 107.765 69.587C105.703 70.6361 101.968 71.928 99.8754 70.0019C99.0811 69.2708 98.9136 66.6177 99.3415 65.6417C100.284 63.4892 100.753 62.4848 100.834 60.1024C101.789 59.8068 102.333 59.6669 103.315 59.4905Z" fill="black"/>
</svg>
