<svg width="550" height="155" viewBox="0 0 550 155" fill="none" xmlns="http://www.w3.org/2000/svg">
<path d="M64.7274 0C64.7606 0.0127577 64.7937 0.0255243 64.8268 0.0382908C69.4127 2.23707 73.4426 7.25269 75.2989 11.9156C76.8328 15.7702 77.3749 19.6417 76.7849 23.7252C76.6533 24.6351 76.4877 25.6603 76.1312 26.4868C70.2824 29.5309 65.942 32.7154 62.1411 38.2636C57.3867 45.2478 55.5681 53.8228 57.078 62.1371C58.4101 69.6797 62.723 76.3673 69.0428 80.69C74.9024 84.6899 82.1037 86.2151 89.0802 84.9324C94.9874 83.8013 100.674 80.1077 104.039 75.107C107.128 70.4949 108.275 64.8499 107.231 59.397C106.328 54.6563 103.553 50.4799 99.534 47.8126C96.0105 45.4944 91.7104 44.6724 87.5812 45.5274C83.7814 46.3498 80.4627 48.644 78.3492 51.9084C76.7335 54.4275 75.9578 58.1573 76.6446 61.1111C78.4399 68.8386 89.3399 72.4112 93.8361 64.8097C95.0832 62.7372 95.4327 60.2458 94.8035 57.9099C94.2004 55.6872 92.7571 53.7864 90.7779 52.6105C88.9059 51.5196 86.8936 51.4016 84.8333 51.9518C85.5802 51.3599 86.2033 50.9773 87.0827 50.5813C89.4759 49.4845 92.2133 49.4124 94.6614 50.3815C101.971 53.1985 104.396 62.3112 101.707 69.213C99.9541 73.6614 96.482 77.2141 92.0765 79.0667C86.9415 81.2847 80.8888 81.1408 75.7399 79.0274C62.9163 73.7632 58.1588 58.0641 63.3527 45.7591C66.6513 37.9444 72.564 32.3904 80.3921 29.1933C89.319 25.6212 99.2918 25.7072 108.156 29.4326C113.994 31.8873 119.402 36.3334 122.616 41.8467C123.565 43.4747 124.254 45.2134 124.965 46.9546C128.111 48.3038 131.005 51.1339 132.17 54.407C132.423 55.1205 132.585 56.0552 132.789 56.8053C133.243 58.4258 133.922 59.974 134.81 61.4037C135.953 63.2237 137.5 64.7866 138.859 66.4701C142.2 70.6066 145.975 75.04 147.848 80.0618C148.385 81.4992 148.65 83.1229 148.911 84.6132C147.603 83.3854 143.658 79.8895 141.86 80.9612C141.288 81.9309 143.545 83.497 144.23 83.9784C145.458 84.7719 146.738 85.5131 147.68 86.6302C148.944 93.221 141.493 92.4675 137.623 90.8918C136.119 90.2796 135.027 89.63 133.675 88.7736C134.229 89.4721 134.83 90.1322 135.472 90.7505C138.051 93.2096 141.224 94.2517 144.767 94.1758L144.245 94.5368C143.001 95.3932 142.069 96.069 140.65 96.6314C136.302 98.3528 133.102 95.967 129.258 94.2996C127.448 93.514 125.328 92.955 123.336 92.8791C117.51 92.655 115.227 97.0204 109.183 95.7664C104.513 94.7976 100.776 91.8484 98.0263 88.0167C97.3126 87.0217 96.7914 85.9535 96.1186 84.955C99.604 94.1881 110.49 98.1911 110.49 98.1911C109.567 99.8383 107.511 103.704 106.65 105.28L100.465 116.652L79.9947 154.285C79.1232 152.892 78.0799 150.752 77.2973 149.258L72.7269 140.568L58.1687 112.933C55.9732 108.77 53.0074 102.9 50.7134 98.8976C50.6257 98.7446 61.7371 93.2741 63.0041 84.2557C62.5581 85.1521 62.2274 86.1174 61.7371 87.0313C60.4492 89.432 58.9102 91.5519 56.7991 93.2741C50.8038 98.1653 42.8985 98.0947 35.6645 96.9271C33.1101 96.5146 30.3515 95.742 27.7715 95.9984C26.3992 96.137 25.121 96.7936 23.9448 97.5017C20.5599 99.5396 16.4245 100.485 12.7011 98.7618C11.0766 98.0101 9.60596 96.6925 8.08865 95.7394C6.84221 94.9572 5.48099 94.2761 4.27324 93.4241C3.18132 92.6977 1.77112 91.1874 1.37755 89.8532C0.52712 86.9694 -1.09355 81.6396 1.10223 79.0915C1.72737 78.366 3.26577 77.2065 3.98782 76.6067C5.23758 75.5514 6.45831 74.462 7.64854 73.3399C10.7607 70.3906 13.64 67.2024 16.5291 64.0414C17.8867 62.556 19.3147 60.9234 20.6414 59.4567C23.8436 55.9165 24.1857 51.4192 26.3277 47.68C27.8383 45.0429 32.673 41.6238 34.8496 39.2179C37.1277 36.6997 39.4485 32.6325 41.978 30.735C44.9923 28.4737 50.8767 27.1164 54.6542 27.1246C55.9907 27.1276 57.498 27.2869 58.8258 27.4648C57.2595 28.4392 55.9704 29.1855 54.9945 30.8236C53.8574 32.7325 53.9068 34.9875 54.4102 37.0778C54.6887 35.973 54.6572 34.9498 55.1642 33.8163C56.3695 31.0952 59.3724 30.0505 61.6574 28.4473C67.2864 24.4982 69.6645 17.4109 68.5824 10.756C68.2356 8.62316 67.5351 6.66032 66.708 4.67769C66.0724 3.154 65.2365 1.67311 64.7278 0.114035C64.7277 0.0760232 64.7275 0.0380115 64.7274 0ZM35.0357 61.9391C36.4135 60.6672 37.2419 59.8686 39.0684 59.2051C39.6497 59.3908 39.9478 59.502 40.501 59.7572C42.8348 60.7158 45.4234 60.3099 46.3243 57.6596C46.6035 56.8384 46.6658 56.2453 46.7466 55.3794C47.9902 55.1923 49.4113 54.9208 50.6533 54.6752C47.5029 53.8767 46.0278 53.1388 42.7166 53.2408C41.435 53.4367 40.0288 54.2785 39.0793 55.1389C37.0569 56.9717 36.1803 59.5525 35.0357 61.9391ZM115.554 61.9269C116.085 63.76 116.713 65.3996 118.91 65.5559C121.023 65.7061 122.091 64.7734 124.143 65.8112C125.374 66.5824 126.385 67.5034 127.447 68.486C125.375 64.7972 123.461 59.1928 118.145 59.4989C115.99 59.8465 114.48 60.5688 112.48 61.1166C113.463 61.3453 114.619 61.5781 115.554 61.9269ZM8.32213 86.7034C9.89217 87.3208 11.2257 86.7784 12.4508 85.7015C13.9059 84.4222 14.8439 81.0998 13.4635 79.5058C13.0538 80.8277 12.9609 81.214 11.7037 81.9666C10.3556 82.7741 6.40811 83.4656 7.53855 85.7015C7.68026 85.9814 8.10591 86.4575 8.32213 86.7034Z" fill="#0069B4"/>
<path d="M15.7823 38.7559C20.9518 38.3368 23.6804 39.1865 28.3277 41.1434C26.8953 42.4216 25.8981 43.1202 24.5898 44.6559C22.7785 46.782 22.3991 48.4881 21.4637 51.038C21.0335 52.1996 20.57 53.3484 20.0737 54.4832C19.333 54.3612 18.5233 54.1519 17.7863 53.9784C15.0009 53.2322 12.8027 51.9958 10.4139 50.3642C9.3293 49.6235 3.39785 43.8359 4.94819 42.5236C7.35009 40.4906 12.6202 39.0665 15.7823 38.7559Z" fill="#0069B4"/>
<path d="M21.7902 8C21.9955 8.21879 22.3176 11.6649 22.4547 12.3318C24.1428 20.5429 29.8662 27.6882 38.0405 30.2658C36.2187 32.0494 34.9094 34.7059 33.1302 36.6552C32.364 37.5341 31.8049 38.0828 30.9044 38.8216C25.6384 35.5318 21.7623 30.4225 20.0116 24.4629C18.518 19.3014 19.18 12.7045 21.7902 8Z" fill="#0069B4"/>
<path d="M509.352 110.623C508.762 110.623 508.279 110.435 507.903 110.06C507.528 109.684 507.34 109.201 507.34 108.611V70.7805C507.34 70.1903 507.528 69.7073 507.903 69.3317C508.279 68.9561 508.762 68.7683 509.352 68.7683H518.608C519.199 68.7683 519.682 68.9561 520.057 69.3317C520.433 69.7073 520.621 70.1903 520.621 70.7805V73.8391C522.016 72.1757 523.84 70.7805 526.094 69.6537C528.348 68.5268 531.004 67.9634 534.062 67.9634C537.175 67.9634 539.911 68.661 542.272 70.0561C544.687 71.4513 546.565 73.5172 547.907 76.2538C549.302 78.9368 549.999 82.2369 549.999 86.1541V108.611C549.999 109.201 549.785 109.684 549.356 110.06C548.98 110.435 548.524 110.623 547.987 110.623H537.845C537.309 110.623 536.826 110.435 536.397 110.06C536.021 109.684 535.833 109.201 535.833 108.611V86.637C535.833 84.115 535.216 82.1833 533.982 80.8418C532.801 79.4466 531.031 78.749 528.67 78.749C526.47 78.749 524.699 79.4466 523.357 80.8418C522.069 82.1833 521.426 84.115 521.426 86.637V108.611C521.426 109.201 521.211 109.684 520.782 110.06C520.406 110.435 519.95 110.623 519.413 110.623H509.352Z" fill="#CB4D00"/>
<path d="M478.865 111.428C472.533 111.428 467.489 109.711 463.733 106.277C459.977 102.842 458.018 97.7446 457.857 90.9835C457.857 90.6079 457.857 90.1249 457.857 89.5347C457.857 88.9444 457.857 88.4883 457.857 88.1663C458.018 83.9272 458.957 80.3052 460.675 77.3002C462.445 74.2416 464.86 71.9342 467.919 70.3781C471.031 68.7683 474.653 67.9634 478.785 67.9634C483.507 67.9634 487.397 68.9024 490.456 70.7805C493.568 72.6586 495.902 75.2075 497.458 78.4271C499.015 81.6467 499.793 85.3224 499.793 89.4542V91.3859C499.793 91.9762 499.578 92.4591 499.149 92.8347C498.773 93.2104 498.317 93.3982 497.78 93.3982H472.024C472.024 93.4518 472.024 93.5323 472.024 93.6396C472.024 93.747 472.024 93.8543 472.024 93.9616C472.077 95.5177 472.346 96.9397 472.829 98.2276C473.311 99.5154 474.063 100.535 475.082 101.286C476.102 102.037 477.336 102.413 478.785 102.413C479.858 102.413 480.743 102.252 481.441 101.93C482.192 101.554 482.809 101.152 483.292 100.723C483.775 100.24 484.151 99.8374 484.419 99.5154C484.902 98.9788 485.278 98.6568 485.546 98.5495C485.868 98.3885 486.351 98.3081 486.995 98.3081H496.975C497.512 98.3081 497.941 98.469 498.263 98.791C498.639 99.0593 498.8 99.4617 498.746 99.9983C498.693 100.911 498.236 102.011 497.378 103.298C496.519 104.586 495.258 105.874 493.595 107.162C491.985 108.396 489.946 109.416 487.478 110.221C485.009 111.025 482.139 111.428 478.865 111.428ZM472.024 85.4297H485.626V85.2687C485.626 83.5516 485.358 82.0491 484.822 80.7613C484.339 79.4734 483.561 78.4807 482.487 77.7831C481.468 77.0856 480.234 76.7368 478.785 76.7368C477.336 76.7368 476.102 77.0856 475.082 77.7831C474.116 78.4807 473.365 79.4734 472.829 80.7613C472.292 82.0491 472.024 83.5516 472.024 85.2687V85.4297Z" fill="#CB4D00"/>
<path d="M428.145 110.622C427.34 110.622 426.75 110.434 426.375 110.059C425.999 109.63 425.677 109.147 425.409 108.61L410.196 71.2628C410.089 71.0481 410.035 70.8067 410.035 70.5384C410.035 70.0554 410.196 69.653 410.518 69.331C410.894 68.9554 411.35 68.7676 411.886 68.7676H420.982C421.679 68.7676 422.216 68.9554 422.592 69.331C422.967 69.7066 423.209 70.0822 423.316 70.4579L432.411 95.1682L441.587 70.4579C441.694 70.0822 441.936 69.7066 442.312 69.331C442.687 68.9554 443.224 68.7676 443.921 68.7676H453.017C453.5 68.7676 453.929 68.9554 454.305 69.331C454.68 69.653 454.868 70.0554 454.868 70.5384C454.868 70.8067 454.814 71.0481 454.707 71.2628L439.494 108.61C439.28 109.147 438.958 109.63 438.529 110.059C438.153 110.434 437.536 110.622 436.677 110.622H428.145Z" fill="#CB4D00"/>
<path d="M379.513 111.428C376.616 111.428 374.013 110.891 371.706 109.818C369.452 108.691 367.655 107.189 366.313 105.311C364.972 103.433 364.301 101.313 364.301 98.952C364.301 95.1421 365.857 92.1372 368.969 89.9371C372.081 87.6834 376.213 86.1541 381.365 85.3492L391.426 83.8199V82.693C391.426 80.7613 391.023 79.2856 390.219 78.2661C389.414 77.2465 387.938 76.7368 385.792 76.7368C384.289 76.7368 383.055 77.0319 382.089 77.6222C381.177 78.2124 380.452 79.0173 379.916 80.0369C379.433 80.7344 378.762 81.0832 377.904 81.0832H368.889C368.298 81.0832 367.842 80.9222 367.52 80.6003C367.198 80.2247 367.064 79.7954 367.118 79.3124C367.118 78.3466 367.467 77.2465 368.164 76.0124C368.916 74.7245 370.042 73.4635 371.545 72.2293C373.047 70.9952 374.979 69.9756 377.34 69.1707C379.701 68.3658 382.545 67.9634 385.872 67.9634C389.36 67.9634 392.338 68.3658 394.806 69.1707C397.275 69.9756 399.26 71.1025 400.763 72.5513C402.319 74.0001 403.473 75.7172 404.224 77.7027C404.975 79.6344 405.351 81.7808 405.351 84.1418V108.611C405.351 109.201 405.136 109.684 404.707 110.06C404.331 110.435 403.875 110.623 403.338 110.623H394.002C393.411 110.623 392.928 110.435 392.553 110.06C392.177 109.684 391.989 109.201 391.989 108.611V105.794C391.292 106.813 390.353 107.752 389.172 108.611C387.992 109.469 386.596 110.14 384.987 110.623C383.431 111.16 381.606 111.428 379.513 111.428ZM383.296 102.252C384.853 102.252 386.248 101.93 387.482 101.286C388.77 100.589 389.762 99.5422 390.46 98.1471C391.211 96.6983 391.587 94.9006 391.587 92.7542V91.6274L384.745 92.8347C382.223 93.264 380.372 93.9348 379.191 94.847C378.065 95.7055 377.501 96.7251 377.501 97.9056C377.501 98.8178 377.769 99.5959 378.306 100.24C378.843 100.884 379.54 101.393 380.399 101.769C381.257 102.091 382.223 102.252 383.296 102.252Z" fill="#CB4D00"/>
<path d="M333.126 110.622C332.535 110.622 332.052 110.434 331.677 110.059C331.301 109.683 331.113 109.2 331.113 108.61V70.7798C331.113 70.2432 331.301 69.7871 331.677 69.4115C332.052 68.9822 332.535 68.7676 333.126 68.7676H342.382C342.972 68.7676 343.455 68.9822 343.831 69.4115C344.206 69.7871 344.394 70.2432 344.394 70.7798V73.9994C345.843 72.336 347.56 71.0481 349.545 70.1359C351.585 69.2237 353.865 68.7676 356.387 68.7676H359.929C360.465 68.7676 360.921 68.9554 361.297 69.331C361.726 69.7066 361.941 70.1896 361.941 70.7798V79.0703C361.941 79.6069 361.726 80.0898 361.297 80.5191C360.921 80.8947 360.465 81.0825 359.929 81.0825H352.121C349.921 81.0825 348.204 81.6996 346.97 82.9338C345.789 84.1143 345.199 85.8046 345.199 88.0047V108.61C345.199 109.2 344.984 109.683 344.555 110.059C344.179 110.434 343.697 110.622 343.106 110.622H333.126Z" fill="#CB4D00"/>
<path d="M286.118 110.622C285.527 110.622 285.045 110.435 284.669 110.059C284.293 109.683 284.105 109.2 284.105 108.61V55.4869C284.105 54.8966 284.293 54.4137 284.669 54.038C285.045 53.6624 285.527 53.4746 286.118 53.4746H295.455C295.991 53.4746 296.447 53.6624 296.823 54.038C297.252 54.4137 297.467 54.8966 297.467 55.4869V82.4509L308.655 70.136C308.977 69.7604 309.326 69.4384 309.701 69.1701C310.077 68.9018 310.613 68.7677 311.311 68.7677H322.097C322.58 68.7677 322.982 68.9555 323.304 69.3311C323.68 69.6531 323.867 70.0555 323.867 70.5385C323.867 70.7531 323.814 70.9946 323.706 71.2629C323.599 71.5312 323.438 71.7458 323.224 71.9068L308.735 87.5218L325.236 107.564C325.665 107.993 325.88 108.422 325.88 108.852C325.88 109.335 325.692 109.764 325.316 110.139C324.994 110.461 324.565 110.622 324.028 110.622H313.001C312.196 110.622 311.606 110.488 311.231 110.22C310.855 109.898 310.506 109.576 310.184 109.254L297.467 93.961V108.61C297.467 109.2 297.252 109.683 296.823 110.059C296.447 110.435 295.991 110.622 295.455 110.622H286.118Z" fill="#CB4D00"/>
<path d="M247.919 111.427C244.86 111.427 242.123 110.73 239.709 109.334C237.348 107.939 235.496 105.9 234.155 103.217C232.813 100.481 232.143 97.1537 232.143 93.2365V70.7798C232.143 70.1896 232.33 69.7066 232.706 69.331C233.082 68.9554 233.565 68.7676 234.155 68.7676H244.216C244.806 68.7676 245.289 68.9554 245.665 69.331C246.04 69.7066 246.228 70.1896 246.228 70.7798V92.7536C246.228 98.0122 248.589 100.642 253.311 100.642C255.511 100.642 257.255 99.9708 258.543 98.6293C259.885 97.2342 260.555 95.2756 260.555 92.7536V70.7798C260.555 70.1896 260.743 69.7066 261.119 69.331C261.495 68.9554 261.977 68.7676 262.568 68.7676H272.629C273.219 68.7676 273.702 68.9554 274.078 69.331C274.453 69.7066 274.641 70.1896 274.641 70.7798V108.61C274.641 109.2 274.453 109.683 274.078 110.059C273.702 110.434 273.219 110.622 272.629 110.622H263.292C262.756 110.622 262.273 110.434 261.843 110.059C261.468 109.683 261.28 109.2 261.28 108.61V105.551C259.885 107.483 258.06 108.959 255.807 109.978C253.607 110.944 250.977 111.427 247.919 111.427Z" fill="#CB4D00"/>
<path d="M201.146 111.427C195.78 111.427 191.326 110.676 187.785 109.174C184.243 107.617 181.56 105.605 179.736 103.137C177.911 100.668 176.945 98.0392 176.838 95.2488C176.838 94.8196 176.999 94.4439 177.321 94.122C177.696 93.7464 178.126 93.5585 178.609 93.5585H188.75C189.502 93.5585 190.065 93.6927 190.441 93.961C190.87 94.2293 191.246 94.5781 191.568 95.0074C191.997 95.8123 192.587 96.5903 193.338 97.3416C194.143 98.0928 195.163 98.7099 196.397 99.1928C197.685 99.6221 199.268 99.8368 201.146 99.8368C204.258 99.8368 206.592 99.3538 208.148 98.3879C209.758 97.4221 210.563 96.1074 210.563 94.4439C210.563 93.2634 210.134 92.2975 209.275 91.5463C208.417 90.7414 207.022 90.0438 205.09 89.4536C203.212 88.8097 200.69 88.1657 197.524 87.5218C193.446 86.6633 189.958 85.5632 187.06 84.2217C184.216 82.8266 182.043 81.029 180.54 78.8289C179.038 76.5752 178.287 73.7849 178.287 70.458C178.287 67.1847 179.199 64.2602 181.023 61.6846C182.901 59.1089 185.504 57.0967 188.831 55.6478C192.158 54.199 196.102 53.4746 200.663 53.4746C204.365 53.4746 207.612 53.9575 210.402 54.9234C213.246 55.8893 215.634 57.1771 217.566 58.7869C219.498 60.3967 220.946 62.1139 221.912 63.9383C222.932 65.7091 223.468 67.453 223.522 69.1701C223.522 69.5994 223.361 70.0019 223.039 70.3775C222.717 70.6994 222.315 70.8604 221.832 70.8604H211.207C210.617 70.8604 210.107 70.7531 209.678 70.5385C209.248 70.3238 208.873 69.975 208.551 69.4921C208.229 68.3116 207.37 67.292 205.975 66.4335C204.634 65.5213 202.863 65.0651 200.663 65.0651C198.302 65.0651 196.451 65.4944 195.109 66.353C193.821 67.1579 193.177 68.4189 193.177 70.136C193.177 71.2092 193.526 72.1483 194.224 72.9531C194.975 73.758 196.182 74.4556 197.846 75.0459C199.563 75.6361 201.897 76.2532 204.848 76.8972C209.731 77.8094 213.675 78.9631 216.68 80.3582C219.685 81.6997 221.885 83.4705 223.281 85.6705C224.676 87.8169 225.373 90.5268 225.373 93.8C225.373 97.4489 224.327 100.615 222.234 103.298C220.195 105.927 217.351 107.939 213.702 109.335C210.053 110.73 205.868 111.427 201.146 111.427Z" fill="#CB4D00"/>
</svg>
